:SAMPLES-PER-SECOND 30
:FULLY-SPECIFIED
:DEGREES
153
root  -2.81101 25.4556 32.2927 -171.605 5.38486 175.599
RightUpLeg  -35.1891 1.33346 -9.73562
RightLeg  108.957 15.7677 -0.211008
RightFoot  -46.8753 5.84662 18.6325
RightToes  -1.16415e-010 -3.18055e-015 -2.98177e-016
Spine  36.1899 -0.587567 4.20147
Spine1  3.16459 -0.216974 -5.51279
HEad  -24.2505 -1.45946 -7.41271
LeftShoulder1  -3.88251e-019 9.70628e-020 -3.87848e-018
LeftArm  -27.5975 37.6092 -45.8621
LeftForeArm  -8.46938 -50.9049 13.7748
LeftHand  -4.26342 -8.64112 35.4213
RightShoulder  4.6047 8.97374 22.6939
RightArm  -0.460534 -34.9869 33.0445
RightForeArm  7.50702 23.415 -12.9456
RightHand  -1.57083 0.980664 -27.728
LeftUpLeg  -81.9173 2.29418 -12.8563
LeftLeg  86.0897 -13.4705 14.9545
LeftFoot  -16.5663 0.000899508 1.49357
LeftToes  1.69338e-011 3.79281e-011 -2.20049e-011
154
root  -2.86227 25.6096 31.7601 -170.719 5.21225 176.061
RightUpLeg  -34.222 1.07261 -9.49539
RightLeg  107.703 15.5267 0.510713
RightFoot  -46.9671 5.87489 18.6694
RightToes  -1.16415e-010 -3.18055e-015 -2.98177e-016
Spine  35.8684 -0.454136 3.26071
Spine1  3.21656 -0.493521 -5.13251
HEad  -24.6772 -1.35473 -7.52837
LeftShoulder1  -3.88251e-019 9.70628e-020 -3.87848e-018
LeftArm  -27.2665 34.3706 -44.9004
LeftForeArm  -5.21422 -51.3922 14.253
LeftHand  -4.3788 -8.81165 35.8921
RightShoulder  4.62521 9.01823 22.7327
RightArm  0.451575 -36.8671 33.445
RightForeArm  7.92751 22.4138 -12.4485
RightHand  -1.31337 0.620403 -24.6372
LeftUpLeg  -81.7432 2.57627 -12.881
LeftLeg  86.6735 -13.6063 14.7154
LeftFoot  -18.0362 0.0207211 1.59755
LeftToes  1.69338e-011 3.79281e-011 -2.20049e-011
155
root  -2.89688 25.8903 31.2296 -169.824 4.86555 176.586
RightUpLeg  -33.1482 0.623653 -8.88306
RightLeg  105.688 15.6014 0.373353
RightFoot  -46.4441 5.79741 18.7283
RightToes  -1.16415e-010 -3.18055e-015 -2.98177e-016
Spine  35.608 -0.380416 2.31656
Spine1  3.23666 -0.81041 -4.6614
HEad  -25.1627 -1.1798 -7.45283
LeftShoulder1  -3.88251e-019 9.70628e-020 -3.87848e-018
LeftArm  -26.8132 31.4665 -43.966
LeftForeArm  -2.23117 -52.1393 14.8733
LeftHand  -4.53873 -9.17217 36.2321
RightShoulder  4.63626 9.0623 22.7158
RightArm  1.90185 -38.9057 33.5258
RightForeArm  8.55731 21.9581 -12.203
RightHand  -1.08444 0.369187 -21.2735
LeftUpLeg  -81.1948 2.52755 -12.606
LeftLeg  86.6765 -13.5971 14.4082
LeftFoot  -19.4886 0.051389 1.86202
LeftToes  1.69338e-011 3.79281e-011 -2.20049e-011
156
root  -2.92817 26.2821 30.6609 -168.857 4.53015 177.172
RightUpLeg  -31.9952 -0.161847 -7.93349
RightLeg  102.801 15.9452 -0.792071
RightFoot  -45.8719 5.68122 18.6901
RightToes  -1.16415e-010 -3.18055e-015 -2.98177e-016
Spine  35.4014 -0.321937 1.47953
Spine1  3.0151 -1.07399 -4.31407
HEad  -25.6607 -0.96548 -7.12264
LeftShoulder1  -3.88251e-019 9.70628e-020 -3.87848e-018
LeftArm  -26.1033 28.8002 -43.1326
LeftForeArm  -0.350047 -52.9991 15.5127
LeftHand  -4.50053 -9.2682 35.718
RightShoulder  4.70068 9.13542 22.9604
RightArm  4.32557 -40.8251 32.7985
RightForeArm  9.00525 21.8814 -12.1516
RightHand  -0.889934 0.108739 -18.3352
LeftUpLeg  -80.2981 2.25192 -12.023
LeftLeg  86.1313 -13.464 14.268
LeftFoot  -20.6701 0.0664226 1.8493
LeftToes  1.69338e-011 3.79281e-011 -2.20049e-011
157
root  -2.95918 26.7459 30.0539 -167.748 4.54295 177.821
RightUpLeg  -31.0364 -0.886669 -6.96433
RightLeg  99.5578 16.1276 -1.75194
RightFoot  -45.3082 5.604 18.7772
RightToes  -1.16415e-010 -3.18055e-015 -2.98177e-016
Spine  35.1708 -0.144702 0.731379
Spine1  2.42615 -1.13255 -4.21488
HEad  -26.075 -0.806138 -6.81265
LeftShoulder1  -3.88251e-019 9.70628e-020 -3.87848e-018
LeftArm  -24.8343 26.0821 -42.1726
LeftForeArm  0.74017 -53.4202 15.8474
LeftHand  -4.32768 -9.12955 34.7564
RightShoulder  4.79945 9.21889 23.3851
RightArm  7.00771 -42.7878 31.4586
RightForeArm  9.21745 22.0899 -12.2787
RightHand  -0.814126 0.0781193 -16.8735
LeftUpLeg  -79.2528 2.25451 -11.3512
LeftLeg  85.3276 -13.2754 14.3192
LeftFoot  -21.7675 0.0525073 1.46989
LeftToes  1.69338e-011 3.79281e-011 -2.20049e-011
158
root  -2.98893 27.2573 29.42 -166.525 4.77365 178.459
RightUpLeg  -30.2907 -1.36741 -6.17314
RightLeg  96.3282 16.1308 -2.25637
RightFoot  -43.9383 5.41001 18.971
RightToes  -1.16415e-010 -3.18055e-015 -2.98177e-016
Spine  34.8094 0.103411 -0.0150963
Spine1  1.5938 -1.09396 -4.21503
HEad  -26.3729 -0.65997 -6.68085
LeftShoulder1  -3.88251e-019 9.70628e-020 -3.87848e-018
LeftArm  -23.0678 23.3049 -41.067
LeftForeArm  1.59343 -53.0962 15.7011
LeftHand  -4.23518 -9.06107 34.2177
RightShoulder  4.88645 9.29269 23.7545
RightArm  9.01256 -44.9575 30.018
RightForeArm  8.8642 22.4977 -12.5159
RightHand  -0.856514 0.294028 -17.074
LeftUpLeg  -78.1372 2.56284 -10.8002
LeftLeg  84.3779 -13.052 14.2598
LeftFoot  -23.042 0.029884 1.05676
LeftToes  1.69338e-011 3.79281e-011 -2.20049e-011
159
root  -3.02162 27.8046 28.7327 -165.358 4.78609 179.117
RightUpLeg  -29.4377 -1.82155 -5.40187
RightLeg  93.063 16.1102 -3.02853
RightFoot  -41.5075 4.95016 18.8995
RightToes  -1.16415e-010 -3.18055e-015 -2.98177e-016
Spine  34.3744 0.22251 -0.625595
Spine1  0.62887 -1.18721 -4.05333
HEad  -26.4856 -0.403158 -6.53657
LeftShoulder1  -3.88251e-019 9.70628e-020 -3.87848e-018
LeftArm  -21.3128 20.9918 -40.2975
LeftForeArm  2.18888 -52.4173 15.328
LeftHand  -4.22706 -9.04714 34.1874
RightShoulder  4.98011 9.36668 24.1581
RightArm  10.7791 -47.0284 28.3155
RightForeArm  7.06606 23.0195 -12.7307
RightHand  -0.922529 0.448655 -17.916
LeftUpLeg  -76.7878 2.72309 -10.2023
LeftLeg  83.2307 -12.7873 14.0591
LeftFoot  -24.3242 0.0158772 0.828058
LeftToes  1.69338e-011 3.79281e-011 -2.20049e-011
160
root  -3.05417 28.3629 27.9914 -164.382 4.49771 179.876
RightUpLeg  -28.6811 -2.28674 -4.56262
RightLeg  90.3261 16.0302 -3.54126
RightFoot  -38.1455 4.39602 19.1293
RightToes  -1.16415e-010 -3.18055e-015 -2.98177e-016
Spine  34.129 0.193422 -1.09799
Spine1  -0.55111 -1.44845 -3.55167
HEad  -26.3759 0.00394531 -6.23037
LeftShoulder1  -3.88251e-019 9.70628e-020 -3.87848e-018
LeftArm  -19.874 19.615 -40.1038
LeftForeArm  2.55534 -51.9103 15.0525
LeftHand  -4.19398 -9.0283 33.9792
RightShoulder  5.08981 9.42461 24.6812
RightArm  13.0098 -48.8224 25.9803
RightForeArm  3.8279 23.7649 -12.971
RightHand  -0.935252 0.406796 -18.2839
LeftUpLeg  -75.1127 2.56008 -9.32976
LeftLeg  81.9136 -12.4833 13.9962
LeftFoot  -25.4124 -0.00218888 0.616496
LeftToes  1.69338e-011 3.79281e-011 -2.20049e-011
161
root  -3.08053 28.9135 27.2523 -163.446 4.24312 -179.315
RightUpLeg  -29.2096 -2.6433 -3.83829
RightLeg  89.246 15.9616 -3.28719
RightFoot  -32.1489 3.58148 20.7357
RightToes  -1.16415e-010 -3.18055e-015 -2.98177e-016
Spine  34.2423 0.199553 -1.77069
Spine1  -2.15434 -1.76684 -2.65474
HEad  -26.2015 0.536476 -5.90709
LeftShoulder1  -3.88251e-019 9.70628e-020 -3.87848e-018
LeftArm  -18.4566 19.1063 -39.957
LeftForeArm  2.95262 -51.7084 14.9605
LeftHand  -4.14232 -9.19891 33.2093
RightShoulder  5.13487 9.41338 24.9619
RightArm  14.8753 -50.9242 23.4076
RightForeArm  0.705848 25.049 -13.4958
RightHand  -0.916116 0.338359 -18.1212
LeftUpLeg  -73.3783 2.33601 -8.31556
LeftLeg  80.4709 -12.1351 14.148
LeftFoot  -26.409 -0.0448403 0.228646
LeftToes  1.69338e-011 3.79281e-011 -2.20049e-011
162
root  -3.10613 29.4417 26.5507 -162.251 4.24303 -178.573
RightUpLeg  -32.2709 -3.1455 -3.26288
RightLeg  89.9907 16.0537 -4.23548
RightFoot  -20.769 1.56312 22.2765
RightToes  -1.16415e-010 -3.18055e-015 -2.98177e-016
Spine  34.6491 0.330689 -2.8231
Spine1  -4.35041 -2.0951 -1.43188
HEad  -26.1048 1.17039 -5.66214
LeftShoulder1  -3.88251e-019 9.70628e-020 -3.87848e-018
LeftArm  -16.728 19.1501 -39.3706
LeftForeArm  3.23115 -51.7086 14.9783
LeftHand  -4.13953 -9.55572 32.4195
RightShoulder  5.0699 9.33904 24.7306
RightArm  15.5435 -53.8338 20.9926
RightForeArm  -1.17727 26.9498 -14.416
RightHand  -0.931966 0.42286 -18.171
LeftUpLeg  -72.0009 2.277 -7.45018
LeftLeg  78.9565 -11.76 14.3032
LeftFoot  -27.3838 -0.103897 -0.238454
LeftToes  1.69338e-011 3.79281e-011 -2.20049e-011
163
root  -3.12307 29.8689 25.8989 -160.835 4.37718 -178.154
RightUpLeg  -37.7644 -4.19852 -2.65791
RightLeg  91.6026 16.4559 -7.76713
RightFoot  -5.89599 -1.22804 20.0464
RightToes  -1.16415e-010 -3.18055e-015 -2.98177e-016
Spine  35.2991 0.531361 -4.32094
Spine1  -6.94812 -2.43209 -0.137037
HEad  -25.9601 1.83621 -5.29928
LeftShoulder1  -3.88251e-019 9.70628e-020 -3.87848e-018
LeftArm  -14.9861 19.5911 -38.7403
LeftForeArm  3.03029 -51.7527 14.9914
LeftHand  -4.16737 -9.70644 32.3094
RightShoulder  4.9952 9.28825 24.3959
RightArm  16.1421 -56.829 18.1271
RightForeArm  -2.50738 28.9764 -15.4713
RightHand  -1.01354 0.70163 -18.8634
LeftUpLeg  -71.1801 2.32095 -7.0271
LeftLeg  77.669 -11.4508 14.2977
LeftFoot  -28.2169 -0.153686 -0.583674
LeftToes  1.69338e-011 3.79281e-011 -2.20049e-011
164
root  -3.11221 30.1185 25.2936 -159.63 4.46782 -178.316
RightUpLeg  -43.9631 -5.82841 -1.90229
RightLeg  93.5648 17.1514 -11.2517
RightFoot  3.9281 -2.09147 13.4589
RightToes  -1.16415e-010 -3.18055e-015 -2.98177e-016
Spine  36.105 0.735516 -6.2995
Spine1  -9.25881 -2.74089 1.03712
HEad  -25.6829 2.44146 -4.70198
LeftShoulder1  -3.88251e-019 9.70628e-020 -3.87848e-018
LeftArm  -13.8849 20.1809 -38.778
LeftForeArm  2.777 -51.3797 14.7607
LeftHand  -4.15381 -9.48593 32.6734
RightShoulder  4.99794 9.29124 24.4059
RightArm  17.695 -58.7384 14.4607
RightForeArm  -3.90097 30.4509 -16.2505
RightHand  -1.13818 1.12385 -19.8289
LeftUpLeg  -70.6149 2.34873 -7.24634
LeftLeg  76.9354 -11.2962 14.1494
LeftFoot  -29.0364 -0.188144 -0.78284
LeftToes  1.69338e-011 3.79281e-011 -2.20049e-011
165
root  -3.09935 30.2626 24.6614 -158.942 4.52589 -178.679
RightUpLeg  -49.6646 -7.77512 -0.657396
RightLeg  95.8229 17.7827 -12.3941
RightFoot  3.55108 -1.00456 6.40213
RightToes  -1.16415e-010 -3.18055e-015 -2.98177e-016
Spine  36.7196 0.877754 -8.04336
Spine1  -10.5866 -3.006 2.32759
HEad  -25.5606 2.99568 -4.13603
LeftShoulder1  -3.88251e-019 9.70628e-020 -3.87848e-018
LeftArm  -13.6092 20.4882 -39.4779
LeftForeArm  3.2409 -50.1229 14.0942
LeftHand  -4.07174 -9.18991 32.6946
RightShoulder  5.0127 9.27718 24.5187
RightArm  19.067 -59.477 11.2789
RightForeArm  -4.83845 31.1856 -16.6369
RightHand  -1.24015 1.4962 -20.452
LeftUpLeg  -69.663 2.47659 -7.73301
LeftLeg  76.6113 -11.2487 13.9608
LeftFoot  -30.2339 -0.22967 -0.979521
LeftToes  1.69338e-011 3.79281e-011 -2.20049e-011
166
root  -3.1176 30.3909 23.9579 -158.66 4.68587 -178.609
RightUpLeg  -55.4052 -9.66395 1.60418
RightLeg  97.1283 18.1488 -12.8011
RightFoot  -2.80414 -0.230209 2.74839
RightToes  -1.16415e-010 -3.18055e-015 -2.98177e-016
Spine  36.9414 0.953866 -8.74144
Spine1  -10.8232 -3.2369 3.904
HEad  -25.8597 3.56889 -3.8959
LeftShoulder1  -3.88251e-019 9.70628e-020 -3.87848e-018
LeftArm  -13.7469 20.4148 -40.3134
LeftForeArm  4.27062 -48.1801 13.1619
LeftHand  -3.97651 -9.11428 32.1382
RightShoulder  4.94905 9.21003 24.277
RightArm  18.9787 -59.8221 9.7835
RightForeArm  -4.96508 31.5074 -16.8218
RightHand  -1.25708 1.56828 -20.5156
LeftUpLeg  -68.2032 2.86611 -7.84834
LeftLeg  76.4588 -11.2291 13.8549
LeftFoot  -31.8263 -0.300025 -1.29471
LeftToes  1.69338e-011 3.79281e-011 -2.20049e-011
167
root  -3.16164 30.5157 23.2163 -158.632 5.04482 -177.868
RightUpLeg  -61.8808 -11.1152 5.28597
RightLeg  95.9938 18.267 -14.6185
RightFoot  -8.80321 -0.0777422 2.66562
RightToes  -1.16415e-010 -3.18055e-015 -2.98177e-016
Spine  37.0039 0.988454 -8.21083
Spine1  -10.4073 -3.4027 5.49695
HEad  -26.3651 4.13795 -3.86618
LeftShoulder1  -3.88251e-019 9.70628e-020 -3.87848e-018
LeftArm  -13.9671 20.322 -41.1238
LeftForeArm  5.16366 -46.228 12.2948
LeftHand  -3.94661 -9.23575 31.653
RightShoulder  4.85292 9.14908 23.8314
RightArm  18.0758 -59.9878 9.41943
RightForeArm  -4.77854 31.6977 -16.9446
RightHand  -1.19321 1.33068 -20.1531
LeftUpLeg  -66.4556 3.63233 -7.32484
LeftLeg  76.4839 -11.2412 13.8045
LeftFoot  -33.5024 -0.384136 -1.62959
LeftToes  1.69338e-011 3.79281e-011 -2.20049e-011
